<svg viewBox="0 0 24 24" fill="none" xmlns="http://www.w3.org/2000/svg" aria-label="Altrady">
<path d="M23.9984 11.9087V20.2673C23.9784 21.2466 23.5756 22.179 22.8766 22.8644C22.1776 23.5499 21.238 23.9338 20.2594 23.9338C19.2808 23.9338 18.3412 23.5499 17.6422 22.8644C16.9431 22.179 16.5404 21.2466 16.5204 20.2673V10.3839C16.5204 8.31462 23.9984 11.9087 23.9984 11.9087Z" fill="#017AFF"/>
<path d="M24 11.995C24.0017 13.7984 23.5966 15.579 22.815 17.2039C22.0334 18.8288 20.8954 20.2562 19.4859 21.3796C19.0571 21.7247 18.6046 22.0392 18.1317 22.3209L17.9577 22.4244C17.848 22.4871 17.7383 22.5468 17.6254 22.6064C17.685 22.5771 17.7446 22.5441 17.8041 22.5075C16.0596 23.408 13.7869 23.2919 11.8198 22.2016C9.49228 20.9121 7.5879 18.2608 7.49072 14.3121C7.49072 14.2023 7.49072 14.0909 7.49072 13.9764C7.49197 14.6513 7.76038 15.2982 8.23718 15.7754C8.71398 16.2527 9.3603 16.5213 10.0346 16.5226H13.9828C18.1113 16.5226 20.8793 14.5788 22.2007 12.1833C23.3182 10.1611 23.4107 7.82201 22.4342 6.06496C22.4938 6.1685 22.5502 6.27204 22.605 6.37872C22.6599 6.48539 22.7006 6.55756 22.7445 6.64698C22.7884 6.7364 22.8119 6.7866 22.8448 6.85406L22.9514 7.08311C23.0298 7.26195 23.1082 7.44079 23.1771 7.62121C23.21 7.70592 23.243 7.79377 23.2743 7.88006C23.3057 7.96634 23.3339 8.04792 23.3621 8.13107L23.3793 8.18127C23.4075 8.26284 23.4342 8.33815 23.4593 8.42914C23.5674 8.76957 23.6568 9.11627 23.732 9.46611C23.7492 9.54926 23.7665 9.62299 23.7821 9.71398C23.7978 9.80497 23.8088 9.85361 23.8198 9.9242C23.8307 9.9948 23.8433 10.0638 23.8542 10.1344C23.8699 10.2348 23.884 10.3305 23.8966 10.4294C23.9091 10.5282 23.9185 10.6035 23.9279 10.6913C23.9321 10.7142 23.9347 10.7372 23.9357 10.7604C23.9357 10.8168 23.9467 10.8749 23.9514 10.9345C23.9608 11.0208 23.9671 11.1055 23.9718 11.1934C23.9828 11.3377 23.989 11.4805 23.9937 11.6232C23.9984 11.766 24 11.8695 24 11.995Z" fill="#01438D"/>
<path d="M17.799 22.5076C17.7395 22.5431 17.6799 22.5761 17.6204 22.6064C17.5075 22.666 17.3962 22.7241 17.2818 22.7805C17.0545 22.8903 16.8226 22.997 16.5859 23.0943C16.4699 23.1429 16.3508 23.1916 16.2301 23.2355C16.1094 23.2794 16.0138 23.3155 15.9041 23.3531C15.8194 23.3829 15.7285 23.4143 15.6408 23.441C15.553 23.4677 15.4511 23.5006 15.3539 23.5257C15.3176 23.5396 15.2804 23.5511 15.2426 23.5602C15.1737 23.579 15.1031 23.5994 15.0357 23.6151L14.8241 23.6669C14.7915 23.678 14.7579 23.6864 14.7238 23.692C14.6282 23.7155 14.531 23.7375 14.4354 23.7547C14.3398 23.772 14.2787 23.7908 14.1894 23.8034C14.1 23.8159 13.9903 23.841 13.89 23.8567C13.7897 23.8724 13.6847 23.8881 13.5765 23.9006L13.3038 23.932C13.2129 23.943 13.1251 23.9509 13.0342 23.9587L12.7505 23.9807C12.6251 23.9885 12.4997 23.9932 12.3728 23.9979C12.2458 24.0026 12.1204 23.9979 11.995 23.9979C11.8696 23.9979 11.774 23.9979 11.6659 23.9979L11.4558 23.9885C11.4115 23.9909 11.367 23.9909 11.3226 23.9885C11.2615 23.9885 11.1988 23.9885 11.1392 23.9775C11.0248 23.9775 10.9104 23.9603 10.7991 23.9493H10.7834C10.6643 23.9383 10.5483 23.9242 10.4308 23.9069C10.3571 23.8975 10.274 23.8897 10.2098 23.8755C10.1141 23.863 10.0201 23.8473 9.92763 23.8316L9.62826 23.7751C9.53108 23.7548 9.43703 23.7359 9.34299 23.714L9.1408 23.6669L8.90255 23.6057C8.74582 23.5634 8.58908 23.5194 8.43234 23.4692C8.33516 23.441 8.23798 23.4065 8.14394 23.3735C7.79099 23.2555 7.44416 23.1199 7.10476 22.9672C7.03893 22.939 6.97624 22.9076 6.90884 22.8762C6.73172 22.7946 6.55618 22.7068 6.37906 22.6127C6.29599 22.5687 6.21292 22.5217 6.13141 22.4762C6.04991 22.4307 5.96527 22.3805 5.88377 22.3334L5.64709 22.1781C5.24678 21.9277 4.86206 21.6532 4.49506 21.3561C4.42923 21.3027 4.36183 21.2509 4.29914 21.1992C4.23644 21.1474 4.17845 21.0972 4.11575 21.0423C4.05306 20.9874 3.98409 20.9262 3.91826 20.8635C3.7004 20.6674 3.49193 20.4634 3.29131 20.2469C3.2051 20.1591 3.1236 20.0696 3.04209 19.9771C2.96059 19.8845 2.87595 19.7857 2.79445 19.6884C2.73959 19.6225 2.68473 19.5566 2.62987 19.4876C2.62786 19.4826 2.62523 19.4779 2.62203 19.4735C2.58442 19.4296 2.5468 19.3809 2.51075 19.3323C2.44805 19.2523 2.38536 19.1754 2.3258 19.0891C2.24273 18.9762 2.16906 18.8601 2.07972 18.7409C2.01859 18.6467 1.95433 18.551 1.8932 18.4538C1.88482 18.4435 1.87747 18.4325 1.87126 18.4208C1.81169 18.3246 1.75213 18.2274 1.69257 18.129C1.65339 18.0647 1.61577 18.0004 1.57815 17.9345C0.601672 16.1727 0.694147 13.8337 1.81169 11.8162C3.10009 9.48653 5.74897 7.58044 9.69409 7.48317C9.8038 7.48317 9.91509 7.48317 10.0295 7.48317C9.35682 7.48232 8.71109 7.74769 8.23309 8.22142C7.75509 8.69514 7.48359 9.33881 7.4778 10.0121V13.9764C7.4778 18.1086 9.41979 20.8791 11.8132 22.2016C13.7818 23.292 16.0545 23.408 17.799 22.5076Z" fill="#0156B3"/>
<path d="M16.5267 10.0115C16.5255 9.33656 16.257 8.68966 15.7802 8.21243C15.3035 7.7352 14.6571 7.46655 13.9828 7.4653H10.022C5.89355 7.4653 3.12554 9.40904 1.80424 11.8046C0.68669 13.8268 0.594214 16.1659 1.5707 17.9229C1.51114 17.8194 1.45471 17.7158 1.39985 17.6092C1.34499 17.5025 1.30424 17.4303 1.26035 17.3409C1.21647 17.2515 1.19296 17.2013 1.16004 17.1338L1.05346 16.9048C0.937472 16.6428 0.827755 16.3776 0.730577 16.1078C0.700796 16.0231 0.671016 15.9399 0.642803 15.8568L0.631831 15.8144C0.603618 15.7329 0.576973 15.6576 0.551894 15.5666C0.443745 15.2261 0.354404 14.8794 0.279169 14.5296C0.261928 14.4465 0.244687 14.3727 0.229013 14.2817C0.181991 14.0433 0.145941 13.8111 0.114593 13.5664C0.0957848 13.4769 0.0863804 13.3922 0.0769761 13.3044C0.0675718 13.2165 0.0597349 13.1475 0.0534653 13.0612C0.0471958 12.9749 0.0377914 12.8902 0.0330893 12.8024C0.0221176 12.658 0.015848 12.5153 0.00487632 12.3788C-0.00609539 12.2423 0.00487632 12.1262 0.00487632 12.0007C0.00487632 11.8752 0.00487632 11.7795 0.00487632 11.6712C0.00487632 11.5991 0.00487632 11.5269 0.0127133 11.4532C0.0129348 11.4086 0.0155508 11.3641 0.0205502 11.3198C0.0205502 11.2587 0.0205502 11.1959 0.0315219 11.1363C0.0315219 11.0218 0.0487632 10.9072 0.0597349 10.7959C0.0597349 10.7959 0.0597349 10.7849 0.0597349 10.7802C0.0707066 10.6609 0.0848131 10.5449 0.102054 10.4272C0.111459 10.3535 0.12243 10.2703 0.133402 10.206C0.145941 10.1103 0.161615 10.0162 0.177289 9.92361C0.192963 9.83105 0.221176 9.71182 0.239984 9.61769C0.258793 9.52357 0.279169 9.4263 0.301112 9.33217L0.348134 9.1298C0.36851 9.04979 0.387319 8.97292 0.409262 8.89134C0.451582 8.73446 0.495468 8.57758 0.545625 8.4207C0.573838 8.32343 0.60832 8.22617 0.641236 8.13204C0.759119 7.77877 0.894606 7.43163 1.04719 7.09193C1.0754 7.02604 1.10675 6.96329 1.1381 6.89583C1.2196 6.71855 1.30737 6.54285 1.40142 6.36557C1.44531 6.28243 1.49233 6.19928 1.53778 6.1177C1.58324 6.03613 1.63339 5.95141 1.68041 5.86983C1.72743 5.78826 1.77759 5.71296 1.82775 5.62824C2.07843 5.22792 2.35268 4.84288 2.64906 4.47517C2.70235 4.40928 2.75407 4.34183 2.8058 4.27907C2.85752 4.21632 2.90768 4.15828 2.96254 4.09552C3.01739 4.03277 3.07852 3.96375 3.14122 3.89786C3.22899 3.79588 3.32303 3.69705 3.42021 3.59978L3.56285 3.45702C3.62554 3.39427 3.69137 3.32995 3.7572 3.27034C3.84497 3.18405 3.93432 3.10247 4.02679 3.0209C4.11927 2.93932 4.21801 2.8546 4.31519 2.77303C4.38102 2.71812 4.44685 2.66321 4.51582 2.6083L4.52992 2.60046C4.57381 2.56281 4.6224 2.52516 4.67099 2.48907C4.75092 2.42632 4.82773 2.36357 4.91393 2.30396C5.02678 2.22081 5.14277 2.14708 5.26189 2.05766C5.35594 1.99647 5.45155 1.93215 5.54872 1.87097C5.55895 1.86258 5.56997 1.85522 5.58164 1.84901L5.87317 1.67016L6.07223 1.55407C7.83241 0.57671 10.1694 0.669269 12.185 1.78782C14.5126 3.07581 16.417 5.72707 16.5142 9.67574C16.5251 9.78555 16.5267 9.89694 16.5267 10.0115Z" fill="#0068D9"/>
</svg>
